<svg xmlns="http://www.w3.org/2000/svg" width="66" height="19" fill="none" viewBox="9 33 66 19"><defs><path id="a" fill="#fff" d="M9 33h65.692v18.641H9z"/></defs><mask id="b" width="66" height="19" x="9" y="33" maskUnits="userSpaceOnUse" style="mask-type:luminance"><use href="#a"/></mask><g mask="url(#b)"><path fill="#333" d="M74.874 40.167v4.322h-1.089v2.872h-1.088v1.425h-1.09v1.447h-2.193v1.425H14.518v-1.425H12.34v-1.425h-1.088v-1.425h-1.123V44.49H9.042v-4.322h1.088V37.32h1.09v-1.425h1.085v-1.472h2.197v-1.425h54.896v1.425h2.194v1.425h1.089v1.425h1.088v2.872h1.106z"/></g><path fill="#ffb000" d="M10.13 44.49v-4.323l1.105-2.847 1.105-1.45 2.178-1.447h54.879l2.177 1.447 1.106 1.45 1.105 2.847v4.322l-1.105 2.872-1.106 1.447-2.177 1.425h-54.88l-2.177-1.425-1.105-1.447z"/><path fill="#fff" d="M69.397 34.423v1.425h-54.88v-1.425zM12.34 37.32h2.194v-1.425H12.34zm2.178 11.488v-1.425H12.34v1.425zm-3.283-8.64h1.089V37.32h-1.089zm1.105 7.193V44.49h-1.088v2.872zm-2.21-2.872h1.088v-4.322H10.13z"/><mask id="c" width="66" height="19" x="9" y="33" maskUnits="userSpaceOnUse" style="mask-type:luminance"><use href="#a"/></mask><g mask="url(#c)"><path fill="#333" d="M14.518 35.87H12.34v-1.447h2.194v1.447zm-2.178 0h-1.088v1.425h1.088zm-1.105 11.491v1.425h1.089v-1.425zm1.105 1.447v1.425h2.194v-1.425zM11.235 37.32H10.13v2.872h1.088V37.32zm-1.105 7.17v2.871h1.088V44.49zm-1.09-4.323v4.322h1.09v-4.322zm60.357 10.066h2.194v-1.425h-2.194zm2.177-1.425h1.089v-1.425h-1.089zM72.68 37.32v-1.425h-1.09v1.425zm-1.106-1.45v-1.447H69.38v1.425h2.194zm1.106 11.491h1.088V44.49H72.68zm1.105-7.194V37.32h-1.088v2.872h1.088zm0 0v4.322h1.089v-4.322zm-7.69-5.744h3.302v-1.425h-54.88v1.425zm-48.278 15.81h-3.3v1.425h54.88v-1.425z"/></g><mask id="d" width="61" height="17" x="14" y="35" maskUnits="userSpaceOnUse" style="mask-type:luminance"><path fill="#fff" d="M74.27 35.03H14.11V51.1h60.16z"/></mask><g mask="url(#d)"><mask id="e" width="60" height="16" x="14" y="35" maskUnits="userSpaceOnUse" style="mask-type:luminance"><path fill="#fff" d="M14.345 35.833H73.91v14.463H14.345z"/></mask><g mask="url(#e)"><path fill="#333" d="M14.518 48.808H69.38v1.425H14.518zm54.879 0h2.194v-1.425h-2.194zm0-12.938v1.425h2.194V35.87zm2.177 11.491h1.089V44.49h-1.089zm0-10.04v2.871h1.089V37.32zm1.106 2.846v4.322h1.088v-4.322z"/></g></g></svg>