<svg width="215" height="68" viewBox="0 0 215 68" fill="none" xmlns="http://www.w3.org/2000/svg">
<path d="M7.968 67.2H-2.98023e-06V0H7.968V30.912H39.168V0H47.136V67.2H39.168V31.872H7.968V67.2ZM59.4067 67.2H58.1587L66.5107 0H69.6787L89.8387 62.112L109.903 0H113.071L121.423 67.2H113.455L106.831 13.44L89.4548 67.2H83.4067L65.8387 14.112L59.4067 67.2ZM155.593 67.2H147.625V0.959999H131.017V0H172.297V0.959999H155.593V67.2ZM181.92 0.959999V0H199.008V0.959999H194.304V66.24H199.008V67.2H181.92V66.24H186.336V0.959999H181.92ZM211.522 67.584C210.69 67.584 209.954 67.296 209.314 66.72C208.738 66.08 208.45 65.344 208.45 64.512C208.45 63.616 208.738 62.88 209.314 62.304C209.89 61.728 210.594 61.44 211.426 61.44C212.322 61.44 213.058 61.76 213.634 62.4C214.274 62.976 214.594 63.68 214.594 64.512C214.594 65.344 214.274 66.08 213.634 66.72C213.058 67.296 212.354 67.584 211.522 67.584Z" fill="#FFD56C"/>
</svg>
