<svg width="162" height="51" viewBox="0 0 162 51" fill="none" xmlns="http://www.w3.org/2000/svg">
<mask id="path-1-outside-1_6_4" maskUnits="userSpaceOnUse" x="-0.986755" y="-0.690838" width="163" height="52" fill="black">
<rect fill="white" x="-0.986755" y="-0.690838" width="163" height="52"/>
<path d="M15.912 5.78916C13.0533 6.98383 10.8347 8.77583 9.25599 11.1652C7.71999 13.5545 6.95199 16.4345 6.95199 19.8052C6.95199 21.3838 7.10133 22.4932 7.39999 23.1332C7.69866 23.7305 7.84799 24.0718 7.84799 24.1572C5.54399 24.1572 3.81599 23.6878 2.66399 22.7492C1.55466 21.7678 0.999995 20.1678 0.999995 17.9492C0.999995 15.2185 2.10933 12.5732 4.32799 10.0132C6.58933 7.41049 9.46933 5.31983 12.968 3.74116C16.4667 2.11983 19.9653 1.30916 23.464 1.30916C24.0613 1.30916 24.9147 1.35183 26.024 1.43716L21.928 20.5092H31.336L35.432 1.43716H44.648L34.472 49.3092H25.256L30.376 25.2452H20.968L15.848 49.3092H6.63199L15.912 5.78916ZM63.3385 5.34116C60.0958 6.40783 57.5785 8.17849 55.7865 10.6532C54.0372 13.0852 53.1625 16.1145 53.1625 19.7412C53.1625 21.3625 53.3118 22.4718 53.6105 23.0692C53.9092 23.6665 54.0585 24.0292 54.0585 24.1572C49.4932 24.1572 47.2105 22.2158 47.2105 18.3332C47.2105 15.6878 48.2132 13.0425 50.2185 10.3972C52.2665 7.70916 54.8692 5.53316 58.0265 3.86916C61.2265 2.16249 64.4052 1.30916 67.5625 1.30916C69.1412 1.30916 70.7625 1.60782 72.4265 2.20516L70.9545 35.9332L85.0345 2.20516H94.2505L87.5305 49.3092H78.3145L82.4105 20.5732L70.3785 49.3092H61.6105L62.8905 20.4452L52.2025 49.3092H47.0825L63.3385 5.34116ZM112.305 6.94116H111.537C107.74 6.94116 104.775 7.90116 102.641 9.82116C100.551 11.6985 99.5055 15.0478 99.5055 19.8692C99.5055 21.4478 99.6548 22.5572 99.9535 23.1972C100.252 23.7945 100.401 24.1358 100.401 24.2212C98.0975 24.2212 96.3695 23.7518 95.2175 22.8132C94.1082 21.8318 93.5535 20.2318 93.5535 18.0132C93.5535 14.9838 94.3002 12.2318 95.7935 9.75716C97.2868 7.23983 99.6548 5.21316 102.897 3.67716C106.183 2.14116 110.343 1.37316 115.377 1.37316C118.193 1.37316 121.223 1.62916 124.465 2.14116C127.196 2.61049 129.628 2.84516 131.761 2.84516C134.492 2.84516 136.967 2.39716 139.185 1.50116C139.1 4.27449 138.396 6.32249 137.073 7.64516C135.751 8.96783 133.788 9.62916 131.185 9.62916C129.82 9.62916 128.455 9.5225 127.089 9.30916C125.724 9.09583 123.783 8.73316 121.265 8.22116L112.433 49.3092H103.217L112.305 6.94116ZM139.278 5.85316C136.419 7.00516 134.201 8.77583 132.622 11.1652C131.086 13.5118 130.318 16.3918 130.318 19.8052C130.318 21.3838 130.467 22.4932 130.766 23.1332C131.065 23.7305 131.214 24.0718 131.214 24.1572C128.91 24.1572 127.182 23.6878 126.03 22.7492C124.921 21.7678 124.366 20.1678 124.366 17.9492C124.366 15.2185 125.475 12.5732 127.694 10.0132C129.955 7.41049 132.835 5.31983 136.334 3.74116C139.833 2.11983 143.331 1.30916 146.83 1.30916C147.427 1.30916 148.281 1.35183 149.39 1.43716L139.214 49.3092H129.998L139.278 5.85316ZM155.022 49.5652C153.614 49.5652 152.419 49.0745 151.438 48.0932C150.457 47.1118 149.966 45.9172 149.966 44.5092C149.966 43.1012 150.457 41.9065 151.438 40.9252C152.419 39.9012 153.614 39.3892 155.022 39.3892C156.43 39.3892 157.625 39.9012 158.606 40.9252C159.63 41.9065 160.142 43.1012 160.142 44.5092C160.142 45.9172 159.63 47.1118 158.606 48.0932C157.625 49.0745 156.43 49.5652 155.022 49.5652Z"/>
</mask>
<path d="M15.912 5.78916L16.89 5.99771L17.2882 4.13021L15.5264 4.86649L15.912 5.78916ZM9.25599 11.1652L8.42159 10.6139L8.41482 10.6244L9.25599 11.1652ZM7.39999 23.1332L6.49381 23.556L6.49953 23.5683L6.50557 23.5804L7.39999 23.1332ZM7.848 24.1572V25.1572H8.848V24.1572H7.848ZM2.66399 22.7492L2.00142 23.4982L2.01661 23.5116L2.03232 23.5244L2.66399 22.7492ZM4.328 10.0132L3.57312 9.35729L3.57231 9.35823L4.328 10.0132ZM12.968 3.74116L13.3793 4.65271L13.3885 4.64847L12.968 3.74116ZM26.024 1.43716L27.0017 1.64714L27.2421 0.527905L26.1007 0.440105L26.024 1.43716ZM21.928 20.5092L20.9503 20.2992L20.6904 21.5092H21.928V20.5092ZM31.336 20.5092V21.5092H32.144L32.3137 20.7191L31.336 20.5092ZM35.432 1.43716V0.43716H34.624L34.4543 1.22718L35.432 1.43716ZM44.648 1.43716L45.6261 1.64508L45.8829 0.43716H44.648V1.43716ZM34.472 49.3092V50.3092H35.2818L35.4501 49.5171L34.472 49.3092ZM25.256 49.3092L24.2779 49.1011L24.0208 50.3092H25.256V49.3092ZM30.376 25.2452L31.3541 25.4533L31.6111 24.2452H30.376V25.2452ZM20.968 25.2452V24.2452H20.1584L19.9899 25.0371L20.968 25.2452ZM15.848 49.3092V50.3092H16.6576L16.8261 49.5173L15.848 49.3092ZM6.63199 49.3092L5.65398 49.1006L5.39628 50.3092H6.63199V49.3092ZM15.912 5.78916L15.5264 4.86649C12.5003 6.13113 10.1188 8.04533 8.42166 10.6139L9.25599 11.1652L10.0903 11.7164C11.5506 9.50633 13.6063 7.83653 16.2976 6.71183L15.912 5.78916ZM9.25599 11.1652L8.41482 10.6244C6.7571 13.2031 5.952 16.2791 5.952 19.8052H6.952H7.952C7.952 16.5899 8.6829 13.9059 10.0972 11.7059L9.25599 11.1652ZM6.952 19.8052H5.952C5.952 21.3927 6.09389 22.6991 6.49381 23.556L7.39999 23.1332L8.30618 22.7103C8.10876 22.2872 7.952 21.3749 7.952 19.8052H6.952ZM7.39999 23.1332L6.50557 23.5804C6.65222 23.8737 6.75535 24.0906 6.81984 24.238C6.85262 24.3129 6.8694 24.3563 6.87614 24.3755C6.87957 24.3853 6.87615 24.3769 6.87085 24.3557C6.86883 24.3476 6.848 24.2688 6.848 24.1572H7.848H8.848C8.848 23.9431 8.77776 23.7545 8.76385 23.7148C8.73326 23.6274 8.69404 23.5321 8.65215 23.4363C8.5673 23.2424 8.44644 22.99 8.29442 22.6859L7.39999 23.1332ZM7.848 24.1572V23.1572C5.6541 23.1572 4.19429 22.7061 3.29567 21.9739L2.66399 22.7492L2.03232 23.5244C3.4377 24.6695 5.43389 25.1572 7.848 25.1572V24.1572ZM2.66399 22.7492L3.32657 22.0002C2.52003 21.2867 1.99999 20.0252 1.99999 17.9492H0.999994H-5.72205e-06C-5.72205e-06 20.3105 0.589289 22.249 2.00142 23.4982L2.66399 22.7492ZM0.999994 17.9492H1.99999C1.99999 15.513 2.98328 13.0916 5.08368 10.6681L4.328 10.0132L3.57231 9.35823C1.23537 12.0547 -5.72205e-06 14.924 -5.72205e-06 17.9492H0.999994ZM4.328 10.0132L5.08287 10.669C7.23924 8.18717 9.99725 6.1787 13.3793 4.65267L12.968 3.74116L12.5567 2.82965C8.9414 4.46095 5.93942 6.63382 3.57312 9.35729L4.328 10.0132ZM12.968 3.74116L13.3885 4.64847C16.769 3.0819 20.1248 2.30916 23.464 2.30916V1.30916V0.309158C19.8058 0.309158 16.1644 1.15775 12.5475 2.83385L12.968 3.74116ZM23.464 1.30916V2.30916C24.0226 2.30916 24.8458 2.34948 25.9473 2.43422L26.024 1.43716L26.1007 0.440105C24.9836 0.354172 24.1 0.309158 23.464 0.309158V1.30916ZM26.024 1.43716L25.0463 1.22718L20.9503 20.2992L21.928 20.5092L22.9057 20.7191L27.0017 1.64714L26.024 1.43716ZM21.928 20.5092V21.5092H31.336V20.5092V19.5092H21.928V20.5092ZM31.336 20.5092L32.3137 20.7191L36.4097 1.64714L35.432 1.43716L34.4543 1.22718L30.3583 20.2992L31.336 20.5092ZM35.432 1.43716V2.43716H44.648V1.43716V0.43716H35.432V1.43716ZM44.648 1.43716L43.6698 1.22924L33.4939 49.1012L34.472 49.3092L35.4501 49.5171L45.6261 1.64508L44.648 1.43716ZM34.472 49.3092V48.3092H25.256V49.3092V50.3092H34.472V49.3092ZM25.256 49.3092L26.2341 49.5173L31.3541 25.4533L30.376 25.2452L29.3979 25.0371L24.2779 49.1011L25.256 49.3092ZM30.376 25.2452V24.2452H20.968V25.2452V26.2452H30.376V25.2452ZM20.968 25.2452L19.9899 25.0371L14.8699 49.1011L15.848 49.3092L16.8261 49.5173L21.9461 25.4533L20.968 25.2452ZM15.848 49.3092V48.3092H6.63199V49.3092V50.3092H15.848V49.3092ZM6.63199 49.3092L7.61001 49.5177L16.89 5.99771L15.912 5.78916L14.934 5.58062L5.65398 49.1006L6.63199 49.3092ZM63.3385 5.34116L64.2764 5.68794L64.9954 3.74342L63.026 4.39124L63.3385 5.34116ZM55.7865 10.6532L54.9765 10.0666L54.9747 10.0692L55.7865 10.6532ZM53.6105 23.0692L54.5049 22.6219V22.6219L53.6105 23.0692ZM54.0585 24.1572V25.1572H55.0585V24.1572H54.0585ZM50.2185 10.3972L49.4231 9.79111L49.4216 9.79306L50.2185 10.3972ZM58.0265 3.86916L58.4927 4.75383L58.4971 4.75151L58.0265 3.86916ZM72.4265 2.20516L73.4255 2.24876L73.4577 1.51284L72.7644 1.26396L72.4265 2.20516ZM70.9545 35.9332L69.9554 35.8896L71.8773 36.3184L70.9545 35.9332ZM85.0345 2.20516V1.20516H84.3683L84.1117 1.81992L85.0345 2.20516ZM94.2505 2.20516L95.2405 2.34639L95.4033 1.20516H94.2505V2.20516ZM87.5305 49.3092V50.3092H88.398L88.5205 49.4504L87.5305 49.3092ZM78.3145 49.3092L77.3245 49.168L77.1618 50.3092H78.3145V49.3092ZM82.4105 20.5732L83.4005 20.7143L81.4881 20.1869L82.4105 20.5732ZM70.3785 49.3092V50.3092H71.0439L71.3009 49.6954L70.3785 49.3092ZM61.6105 49.3092L60.6115 49.2649L60.5652 50.3092H61.6105V49.3092ZM62.8905 20.4452L63.8895 20.4895L61.9527 20.0979L62.8905 20.4452ZM52.2025 49.3092V50.3092H52.8986L53.1403 49.6564L52.2025 49.3092ZM47.0825 49.3092L46.1445 48.9624L45.6466 50.3092H47.0825V49.3092ZM63.3385 5.34116L63.026 4.39124C59.6079 5.5156 56.9063 7.40173 54.9766 10.0667L55.7865 10.6532L56.5964 11.2397C58.2507 8.95526 60.5837 7.30005 63.651 6.29108L63.3385 5.34116ZM55.7865 10.6532L54.9747 10.0692C53.0791 12.7046 52.1625 15.95 52.1625 19.7412H53.1625H54.1625C54.1625 16.279 54.9952 13.4657 56.5983 11.2371L55.7865 10.6532ZM53.1625 19.7412H52.1625C52.1625 20.5785 52.2008 21.3089 52.2834 21.9226C52.3643 22.5231 52.4953 23.0748 52.7161 23.5164L53.6105 23.0692L54.5049 22.6219C54.4271 22.4662 54.3341 22.1646 54.2656 21.6558C54.1988 21.1601 54.1625 20.5251 54.1625 19.7412H53.1625ZM53.6105 23.0692L52.7161 23.5164C52.8609 23.8061 52.9606 24.0213 53.0218 24.1699C53.0527 24.2448 53.0679 24.2887 53.0738 24.3083C53.0767 24.3177 53.0744 24.3118 53.0709 24.2943C53.0683 24.281 53.0585 24.2304 53.0585 24.1572H54.0585H55.0585C55.0585 23.9707 55.0118 23.807 54.9872 23.726C54.9558 23.6229 54.915 23.5148 54.8712 23.4084C54.783 23.1944 54.6587 22.9296 54.5049 22.6219L53.6105 23.0692ZM54.0585 24.1572V23.1572C51.894 23.1572 50.4571 22.6935 49.5704 21.9394C48.7147 21.2117 48.2105 20.0742 48.2105 18.3332H47.2105H46.2105C46.2105 20.4748 46.8477 22.2493 48.2746 23.4629C49.6706 24.6501 51.6577 25.1572 54.0585 25.1572V24.1572ZM47.2105 18.3332H48.2105C48.2105 15.9564 49.1077 13.5177 51.0154 11.0013L50.2185 10.3972L49.4216 9.79306C47.3186 12.5672 46.2105 15.4193 46.2105 18.3332H47.2105ZM50.2185 10.3972L51.0139 11.0032C52.9688 8.43737 55.4567 6.35389 58.4927 4.75382L58.0265 3.86916L57.5603 2.9845C54.2816 4.71244 51.5641 6.98095 49.4231 9.79111L50.2185 10.3972ZM58.0265 3.86916L58.4971 4.75151C61.574 3.11052 64.5922 2.30916 67.5625 2.30916V1.30916V0.309158C64.2181 0.309158 60.879 1.21447 57.5559 2.9868L58.0265 3.86916ZM67.5625 1.30916V2.30916C69.013 2.30916 70.5201 2.5833 72.0886 3.14635L72.4265 2.20516L72.7644 1.26396C71.0049 0.632347 69.2693 0.309158 67.5625 0.309158V1.30916ZM72.4265 2.20516L71.4274 2.16156L69.9554 35.8896L70.9545 35.9332L71.9535 35.9768L73.4255 2.24876L72.4265 2.20516ZM70.9545 35.9332L71.8773 36.3184L85.9573 2.5904L85.0345 2.20516L84.1117 1.81992L70.0317 35.5479L70.9545 35.9332ZM85.0345 2.20516V3.20516H94.2505V2.20516V1.20516H85.0345V2.20516ZM94.2505 2.20516L93.2605 2.06393L86.5405 49.1679L87.5305 49.3092L88.5205 49.4504L95.2405 2.34639L94.2505 2.20516ZM87.5305 49.3092V48.3092H78.3145V49.3092V50.3092H87.5305V49.3092ZM78.3145 49.3092L79.3045 49.4503L83.4005 20.7143L82.4105 20.5732L81.4205 20.432L77.3245 49.168L78.3145 49.3092ZM82.4105 20.5732L81.4881 20.1869L69.4561 48.9229L70.3785 49.3092L71.3009 49.6954L83.3329 20.9594L82.4105 20.5732ZM70.3785 49.3092V48.3092H61.6105V49.3092V50.3092H70.3785V49.3092ZM61.6105 49.3092L62.6095 49.3535L63.8895 20.4895L62.8905 20.4452L61.8915 20.4009L60.6115 49.2649L61.6105 49.3092ZM62.8905 20.4452L61.9527 20.0979L51.2647 48.9619L52.2025 49.3092L53.1403 49.6564L63.8283 20.7924L62.8905 20.4452ZM52.2025 49.3092V48.3092H47.0825V49.3092V50.3092H52.2025V49.3092ZM47.0825 49.3092L48.0204 49.6559L64.2764 5.68794L63.3385 5.34116L62.4006 4.99438L46.1445 48.9624L47.0825 49.3092ZM112.305 6.94116L113.283 7.15089L113.543 5.94116H112.305V6.94116ZM102.641 9.82116L103.31 10.5652L103.31 10.5645L102.641 9.82116ZM99.9535 23.1972L99.0473 23.62L99.053 23.6323L99.0591 23.6444L99.9535 23.1972ZM100.401 24.2212V25.2212H101.401V24.2212H100.401ZM95.2175 22.8132L94.5549 23.5622L94.5701 23.5756L94.5858 23.5884L95.2175 22.8132ZM95.7935 9.75716L96.6497 10.2738L96.6535 10.2674L95.7935 9.75716ZM102.897 3.67716L102.474 2.77126L102.469 2.77342L102.897 3.67716ZM124.465 2.14116L124.635 1.15552L124.621 1.1534L124.465 2.14116ZM139.186 1.50116L140.185 1.53191L140.232 0L138.811 0.573917L139.186 1.50116ZM137.074 7.64516L137.781 8.35227V8.35227L137.074 7.64516ZM127.089 9.30916L126.935 10.2972V10.2972L127.089 9.30916ZM121.266 8.22116L121.465 7.24122L120.496 7.04411L120.288 8.01101L121.266 8.22116ZM112.434 49.3092V50.3092H113.241L113.411 49.5193L112.434 49.3092ZM103.217 49.3092L102.24 49.0994L101.98 50.3092H103.217V49.3092ZM112.305 6.94116V5.94116H111.537V6.94116V7.94116H112.305V6.94116ZM111.537 6.94116V5.94116C107.575 5.94116 104.342 6.94523 101.973 9.07787L102.641 9.82116L103.31 10.5645C105.208 8.85709 107.906 7.94116 111.537 7.94116V6.94116ZM102.641 9.82116L101.973 9.07711C99.5613 11.243 98.5055 14.9568 98.5055 19.8692H99.5055H100.505C100.505 15.1388 101.54 12.1539 103.31 10.5652L102.641 9.82116ZM99.5055 19.8692H98.5055C98.5055 21.4567 98.6474 22.7631 99.0473 23.62L99.9535 23.1972L100.86 22.7743C100.662 22.3512 100.505 21.4389 100.505 19.8692H99.5055ZM99.9535 23.1972L99.0591 23.6444C99.2057 23.9377 99.3089 24.1546 99.3733 24.302C99.4061 24.3769 99.4229 24.4203 99.4296 24.4395C99.4331 24.4493 99.4296 24.4409 99.4244 24.4197C99.4223 24.4116 99.4015 24.3329 99.4015 24.2212H100.401H101.401C101.401 24.0071 101.331 23.8185 101.317 23.7788C101.287 23.6914 101.248 23.5961 101.206 23.5003C101.121 23.3064 101 23.054 100.848 22.7499L99.9535 23.1972ZM100.401 24.2212V23.2212C98.2076 23.2212 96.7478 22.7701 95.8492 22.0379L95.2175 22.8132L94.5858 23.5884C95.9912 24.7335 97.9874 25.2212 100.401 25.2212V24.2212ZM95.2175 22.8132L95.8801 22.0642C95.0735 21.3507 94.5535 20.0892 94.5535 18.0132H93.5535H92.5535C92.5535 20.3745 93.1428 22.313 94.5549 23.5622L95.2175 22.8132ZM93.5535 18.0132H94.5535C94.5535 15.1568 95.2551 12.5849 96.6497 10.2738L95.7935 9.75716L94.9373 9.24049C93.3453 11.8787 92.5535 14.8109 92.5535 18.0132H93.5535ZM95.7935 9.75716L96.6535 10.2674C98.0244 7.95656 100.222 6.05108 103.326 4.58089L102.897 3.67716L102.469 2.77342C99.0878 4.37523 96.5493 6.52309 94.9334 9.24696L95.7935 9.75716ZM102.897 3.67716L103.321 4.58304C106.433 3.12822 110.436 2.37316 115.378 2.37316V1.37316V0.373161C110.25 0.373161 105.933 1.1541 102.474 2.77127L102.897 3.67716ZM115.378 1.37316V2.37316C118.134 2.37316 121.11 2.62377 124.31 3.12892L124.465 2.14116L124.621 1.1534C121.335 0.634552 118.253 0.373161 115.378 0.373161V1.37316ZM124.465 2.14116L124.296 3.12671C127.067 3.60298 129.558 3.84516 131.762 3.84516V2.84516V1.84516C129.699 1.84516 127.325 1.618 124.635 1.15561L124.465 2.14116ZM131.762 2.84516V3.84516C134.603 3.84516 137.207 3.37876 139.56 2.4284L139.186 1.50116L138.811 0.573917C136.727 1.41556 134.382 1.84516 131.762 1.84516V2.84516ZM139.186 1.50116L138.186 1.47041C138.105 4.11025 137.439 5.86581 136.366 6.93805L137.074 7.64516L137.781 8.35227C139.354 6.77917 140.096 4.43874 140.185 1.53191L139.186 1.50116ZM137.074 7.64516L136.366 6.93805C135.295 8.0098 133.629 8.62916 131.186 8.62916V9.62916V10.6292C133.948 10.6292 136.207 9.92585 137.781 8.35227L137.074 7.64516ZM131.186 9.62916V8.62916C129.872 8.62916 128.559 8.5266 127.244 8.32115L127.089 9.30916L126.935 10.2972C128.351 10.5184 129.768 10.6292 131.186 10.6292V9.62916ZM127.089 9.30916L127.244 8.32115C125.901 8.11136 123.978 7.75229 121.465 7.24122L121.266 8.22116L121.066 9.2011C123.588 9.71403 125.547 10.0803 126.935 10.2972L127.089 9.30916ZM121.266 8.22116L120.288 8.01101L111.456 49.099L112.434 49.3092L113.411 49.5193L122.243 8.43131L121.266 8.22116ZM112.434 49.3092V48.3092H103.217V49.3092V50.3092H112.434V49.3092ZM103.217 49.3092L104.195 49.5189L113.283 7.15089L112.305 6.94116L111.328 6.73143L102.24 49.0994L103.217 49.3092ZM139.278 5.85316L140.256 6.062L140.649 4.22263L138.904 4.92564L139.278 5.85316ZM132.622 11.1652L131.788 10.6139L131.785 10.6175L132.622 11.1652ZM130.766 23.1332L129.86 23.556L129.866 23.5683L129.872 23.5804L130.766 23.1332ZM131.214 24.1572V25.1572H132.214V24.1572H131.214ZM126.03 22.7492L125.367 23.4982L125.383 23.5116L125.398 23.5244L126.03 22.7492ZM127.694 10.0132L126.939 9.35729L126.938 9.35823L127.694 10.0132ZM136.334 3.74116L136.745 4.65271L136.754 4.64847L136.334 3.74116ZM149.39 1.43716L150.368 1.64508L150.606 0.527721L149.467 0.440105L149.39 1.43716ZM139.214 49.3092V50.3092H140.024L140.192 49.5171L139.214 49.3092ZM129.998 49.3092L129.02 49.1003L128.762 50.3092H129.998V49.3092ZM139.278 5.85316L138.904 4.92564C135.873 6.14738 133.487 8.04227 131.788 10.6139L132.622 11.1652L133.456 11.7164C134.915 9.50939 136.966 7.86295 139.652 6.78068L139.278 5.85316ZM132.622 11.1652L131.785 10.6175C130.122 13.1593 129.318 16.2399 129.318 19.8052H130.318H131.318C131.318 16.5438 132.05 13.8644 133.459 11.7128L132.622 11.1652ZM130.318 19.8052H129.318C129.318 21.3927 129.46 22.6991 129.86 23.556L130.766 23.1332L131.672 22.7103C131.475 22.2872 131.318 21.3749 131.318 19.8052H130.318ZM130.766 23.1332L129.872 23.5804C130.018 23.8737 130.121 24.0906 130.186 24.238C130.219 24.3129 130.235 24.3563 130.242 24.3755C130.246 24.3853 130.242 24.3769 130.237 24.3557C130.235 24.3476 130.214 24.2688 130.214 24.1572H131.214H132.214C132.214 23.9431 132.144 23.7545 132.13 23.7148C132.099 23.6274 132.06 23.5321 132.018 23.4363C131.933 23.2424 131.812 22.99 131.66 22.6859L130.766 23.1332ZM131.214 24.1572V23.1572C129.02 23.1572 127.56 22.7061 126.662 21.9739L126.03 22.7492L125.398 23.5244C126.804 24.6695 128.8 25.1572 131.214 25.1572V24.1572ZM126.03 22.7492L126.693 22.0002C125.886 21.2867 125.366 20.0252 125.366 17.9492H124.366H123.366C123.366 20.3105 123.955 22.249 125.367 23.4982L126.03 22.7492ZM124.366 17.9492H125.366C125.366 15.513 126.349 13.0916 128.45 10.6681L127.694 10.0132L126.938 9.35823C124.601 12.0547 123.366 14.924 123.366 17.9492H124.366ZM127.694 10.0132L128.449 10.669C130.605 8.18717 133.363 6.1787 136.745 4.65267L136.334 3.74116L135.923 2.82965C132.307 4.46095 129.305 6.63382 126.939 9.35729L127.694 10.0132ZM136.334 3.74116L136.754 4.64847C140.135 3.0819 143.491 2.30916 146.83 2.30916V1.30916V0.309158C143.172 0.309158 139.53 1.15775 135.914 2.83385L136.334 3.74116ZM146.83 1.30916V2.30916C147.389 2.30916 148.212 2.34948 149.313 2.43422L149.39 1.43716L149.467 0.440105C148.35 0.354172 147.466 0.309158 146.83 0.309158V1.30916ZM149.39 1.43716L148.412 1.22924L138.236 49.1012L139.214 49.3092L140.192 49.5171L150.368 1.64508L149.39 1.43716ZM139.214 49.3092V48.3092H129.998V49.3092V50.3092H139.214V49.3092ZM129.998 49.3092L130.976 49.518L140.256 6.062L139.278 5.85316L138.3 5.64432L129.02 49.1003L129.998 49.3092ZM151.438 48.0932L150.731 48.8003V48.8003L151.438 48.0932ZM151.438 40.9252L152.145 41.6323L152.153 41.6247L152.16 41.6171L151.438 40.9252ZM158.606 40.9252L157.884 41.6171L157.899 41.6324L157.914 41.6471L158.606 40.9252ZM158.606 48.0932L157.914 47.3712L157.906 47.3785L157.899 47.3861L158.606 48.0932ZM155.022 49.5652V48.5652C153.875 48.5652 152.936 48.1768 152.145 47.3861L151.438 48.0932L150.731 48.8003C151.903 49.9722 153.353 50.5652 155.022 50.5652V49.5652ZM151.438 48.0932L152.145 47.3861C151.354 46.5953 150.966 45.6563 150.966 44.5092H149.966H148.966C148.966 46.178 149.559 47.6284 150.731 48.8003L151.438 48.0932ZM149.966 44.5092H150.966C150.966 43.362 151.354 42.423 152.145 41.6323L151.438 40.9252L150.731 40.2181C149.559 41.39 148.966 42.8403 148.966 44.5092H149.966ZM151.438 40.9252L152.16 41.6171C152.954 40.7882 153.889 40.3892 155.022 40.3892V39.3892V38.3892C153.339 38.3892 151.884 39.0141 150.716 40.2333L151.438 40.9252ZM155.022 39.3892V40.3892C156.155 40.3892 157.09 40.7882 157.884 41.6171L158.606 40.9252L159.328 40.2333C158.16 39.0141 156.705 38.3892 155.022 38.3892V39.3892ZM158.606 40.9252L157.914 41.6471C158.743 42.4414 159.142 43.376 159.142 44.5092H160.142H161.142C161.142 42.8263 160.517 41.3716 159.298 40.2032L158.606 40.9252ZM160.142 44.5092H159.142C159.142 45.6423 158.743 46.5769 157.914 47.3712L158.606 48.0932L159.298 48.8152C160.517 47.6468 161.142 46.192 161.142 44.5092H160.142ZM158.606 48.0932L157.899 47.3861C157.108 48.1768 156.169 48.5652 155.022 48.5652V49.5652V50.5652C156.691 50.5652 158.141 49.9722 159.313 48.8003L158.606 48.0932Z" fill="#FFD56C" mask="url(#path-1-outside-1_6_4)"/>
</svg>
