<svg width="217" height="70" viewBox="0 0 217 70" fill="none" xmlns="http://www.w3.org/2000/svg">
<mask id="path-1-outside-1_6_3" maskUnits="userSpaceOnUse" x="-0.721863" y="-0.799995" width="218" height="71" fill="black">
<rect fill="white" x="-0.721863" y="-0.799995" width="218" height="71"/>
<path d="M8.96801 68.2H1.00001V1H8.96801V31.912H40.168V1H48.136V68.2H40.168V32.872H8.96801V68.2ZM60.4068 68.2H59.1588L67.5108 1H70.6788L90.8388 63.112L110.903 1H114.071L122.423 68.2H114.455L107.831 14.44L90.4548 68.2H84.4068L66.8388 15.112L60.4068 68.2ZM156.594 68.2H148.626V1.96H132.018V1H173.298V1.96H156.594V68.2ZM182.92 1.96V1H200.008V1.96H195.304V67.24H200.008V68.2H182.92V67.24H187.336V1.96H182.92ZM212.523 68.584C211.691 68.584 210.955 68.296 210.315 67.72C209.739 67.08 209.451 66.344 209.451 65.512C209.451 64.616 209.739 63.88 210.315 63.304C210.891 62.728 211.595 62.44 212.427 62.44C213.323 62.44 214.059 62.76 214.635 63.4C215.275 63.976 215.595 64.68 215.595 65.512C215.595 66.344 215.275 67.08 214.635 67.72C214.059 68.296 213.355 68.584 212.523 68.584Z"/>
</mask>
<path d="M8.96801 68.2V69.2H9.96801V68.2H8.96801ZM1.00001 68.2H1.14441e-05V69.2H1.00001V68.2ZM1.00001 1V0H1.14441e-05V1H1.00001ZM8.96801 1H9.96801V0H8.96801V1ZM8.96801 31.912H7.96801V32.912H8.96801V31.912ZM40.168 31.912V32.912H41.168V31.912H40.168ZM40.168 1V0H39.168V1H40.168ZM48.136 1H49.136V0H48.136V1ZM48.136 68.2V69.2H49.136V68.2H48.136ZM40.168 68.2H39.168V69.2H40.168V68.2ZM40.168 32.872H41.168V31.872H40.168V32.872ZM8.96801 32.872V31.872H7.96801V32.872H8.96801ZM8.96801 68.2V67.2H1.00001V68.2V69.2H8.96801V68.2ZM1.00001 68.2H2.00001V1H1.00001H1.14441e-05V68.2H1.00001ZM1.00001 1V2H8.96801V1V0H1.00001V1ZM8.96801 1H7.96801V31.912H8.96801H9.96801V1H8.96801ZM8.96801 31.912V32.912H40.168V31.912V30.912H8.96801V31.912ZM40.168 31.912H41.168V1H40.168H39.168V31.912H40.168ZM40.168 1V2H48.136V1V0H40.168V1ZM48.136 1H47.136V68.2H48.136H49.136V1H48.136ZM48.136 68.2V67.2H40.168V68.2V69.2H48.136V68.2ZM40.168 68.2H41.168V32.872H40.168H39.168V68.2H40.168ZM40.168 32.872V31.872H8.96801V32.872V33.872H40.168V32.872ZM8.96801 32.872H7.96801V68.2H8.96801H9.96801V32.872H8.96801ZM60.4068 68.2V69.2H61.2929L61.3995 68.3203L60.4068 68.2ZM59.1588 68.2L58.1664 68.0767L58.0268 69.2H59.1588V68.2ZM67.5108 1V0H66.6274L66.5184 0.876663L67.5108 1ZM70.6788 1L71.6299 0.691277L71.4055 0H70.6788V1ZM90.8388 63.112L89.8876 63.4207L90.841 66.3582L91.7903 63.4194L90.8388 63.112ZM110.903 1V0H110.175L109.951 0.692612L110.903 1ZM114.071 1L115.063 0.876663L114.954 0H114.071V1ZM122.423 68.2V69.2H123.555L123.415 68.0767L122.423 68.2ZM114.455 68.2L113.462 68.3223L113.57 69.2H114.455V68.2ZM107.831 14.44L108.823 14.3177L106.879 14.1325L107.831 14.44ZM90.4548 68.2V69.2H91.1825L91.4063 68.5076L90.4548 68.2ZM84.4068 68.2L83.4574 68.5142L83.6844 69.2H84.4068V68.2ZM66.8388 15.112L67.7881 14.7978L65.846 14.9917L66.8388 15.112ZM60.4068 68.2V67.2H59.1588V68.2V69.2H60.4068V68.2ZM59.1588 68.2L60.1511 68.3233L68.5031 1.12334L67.5108 1L66.5184 0.876663L58.1664 68.0767L59.1588 68.2ZM67.5108 1V2H70.6788V1V0H67.5108V1ZM70.6788 1L69.7276 1.30872L89.8876 63.4207L90.8388 63.112L91.7899 62.8033L71.6299 0.691277L70.6788 1ZM90.8388 63.112L91.7903 63.4194L111.854 1.30739L110.903 1L109.951 0.692612L89.8872 62.8046L90.8388 63.112ZM110.903 1V2H114.071V1V0H110.903V1ZM114.071 1L113.078 1.12334L121.43 68.3233L122.423 68.2L123.415 68.0767L115.063 0.876663L114.071 1ZM122.423 68.2V67.2H114.455V68.2V69.2H122.423V68.2ZM114.455 68.2L115.447 68.0777L108.823 14.3177L107.831 14.44L106.838 14.5623L113.462 68.3223L114.455 68.2ZM107.831 14.44L106.879 14.1325L89.5032 67.8925L90.4548 68.2L91.4063 68.5076L108.782 14.7476L107.831 14.44ZM90.4548 68.2V67.2H84.4068V68.2V69.2H90.4548V68.2ZM84.4068 68.2L85.3561 67.8858L67.7881 14.7978L66.8388 15.112L65.8894 15.4262L83.4574 68.5142L84.4068 68.2ZM66.8388 15.112L65.846 14.9917L59.414 68.0797L60.4068 68.2L61.3995 68.3203L67.8315 15.2323L66.8388 15.112ZM156.594 68.2V69.2H157.594V68.2H156.594ZM148.626 68.2H147.626V69.2H148.626V68.2ZM148.626 1.96H149.626V0.959999H148.626V1.96ZM132.018 1.96H131.018V2.96H132.018V1.96ZM132.018 1V0H131.018V1H132.018ZM173.298 1H174.298V0H173.298V1ZM173.298 1.96V2.96H174.298V1.96H173.298ZM156.594 1.96V0.959999H155.594V1.96H156.594ZM156.594 68.2V67.2H148.626V68.2V69.2H156.594V68.2ZM148.626 68.2H149.626V1.96H148.626H147.626V68.2H148.626ZM148.626 1.96V0.959999H132.018V1.96V2.96H148.626V1.96ZM132.018 1.96H133.018V1H132.018H131.018V1.96H132.018ZM132.018 1V2H173.298V1V0H132.018V1ZM173.298 1H172.298V1.96H173.298H174.298V1H173.298ZM173.298 1.96V0.959999H156.594V1.96V2.96H173.298V1.96ZM156.594 1.96H155.594V68.2H156.594H157.594V1.96H156.594ZM182.92 1.96H181.92V2.96H182.92V1.96ZM182.92 1V0H181.92V1H182.92ZM200.008 1H201.008V0H200.008V1ZM200.008 1.96V2.96H201.008V1.96H200.008ZM195.304 1.96V0.959999H194.304V1.96H195.304ZM195.304 67.24H194.304V68.24H195.304V67.24ZM200.008 67.24H201.008V66.24H200.008V67.24ZM200.008 68.2V69.2H201.008V68.2H200.008ZM182.92 68.2H181.92V69.2H182.92V68.2ZM182.92 67.24V66.24H181.92V67.24H182.92ZM187.336 67.24V68.24H188.336V67.24H187.336ZM187.336 1.96H188.336V0.959999H187.336V1.96ZM182.92 1.96H183.92V1H182.92H181.92V1.96H182.92ZM182.92 1V2H200.008V1V0H182.92V1ZM200.008 1H199.008V1.96H200.008H201.008V1H200.008ZM200.008 1.96V0.959999H195.304V1.96V2.96H200.008V1.96ZM195.304 1.96H194.304V67.24H195.304H196.304V1.96H195.304ZM195.304 67.24V68.24H200.008V67.24V66.24H195.304V67.24ZM200.008 67.24H199.008V68.2H200.008H201.008V67.24H200.008ZM200.008 68.2V67.2H182.92V68.2V69.2H200.008V68.2ZM182.92 68.2H183.92V67.24H182.92H181.92V68.2H182.92ZM182.92 67.24V68.24H187.336V67.24V66.24H182.92V67.24ZM187.336 67.24H188.336V1.96H187.336H186.336V67.24H187.336ZM187.336 1.96V0.959999H182.92V1.96V2.96H187.336V1.96ZM210.315 67.72L209.571 68.389L209.606 68.4281L209.646 68.4633L210.315 67.72ZM210.315 63.304L209.607 62.5969V62.5969L210.315 63.304ZM214.635 63.4L213.891 64.069L213.926 64.1081L213.966 64.1433L214.635 63.4ZM214.635 67.72L213.927 67.0129V67.0129L214.635 67.72ZM212.523 68.584V67.584C211.947 67.584 211.447 67.3938 210.983 66.9767L210.315 67.72L209.646 68.4633C210.462 69.1982 211.434 69.584 212.523 69.584V68.584ZM210.315 67.72L211.058 67.051C210.641 66.5876 210.451 66.0876 210.451 65.512H209.451H208.451C208.451 66.6004 208.836 67.5724 209.571 68.389L210.315 67.72ZM209.451 65.512H210.451C210.451 64.8521 210.653 64.3799 211.022 64.0111L210.315 63.304L209.607 62.5969C208.824 63.3801 208.451 64.3799 208.451 65.512H209.451ZM210.315 63.304L211.022 64.0111C211.406 63.6271 211.853 63.44 212.427 63.44V62.44V61.44C211.336 61.44 210.375 61.8289 209.607 62.5969L210.315 63.304ZM212.427 62.44V63.44C213.052 63.44 213.513 63.6492 213.891 64.069L214.635 63.4L215.378 62.731C214.604 61.8708 213.593 61.44 212.427 61.44V62.44ZM214.635 63.4L213.966 64.1433C214.403 64.5372 214.595 64.9745 214.595 65.512H215.595H216.595C216.595 64.3855 216.146 63.4148 215.303 62.6567L214.635 63.4ZM215.595 65.512H214.595C214.595 66.0542 214.398 66.5423 213.927 67.0129L214.635 67.72L215.342 68.4271C216.151 67.6177 216.595 66.6338 216.595 65.512H215.595ZM214.635 67.72L213.927 67.0129C213.543 67.3969 213.096 67.584 212.523 67.584V68.584V69.584C213.613 69.584 214.574 69.1951 215.342 68.4271L214.635 67.72Z" fill="#FFD56C" mask="url(#path-1-outside-1_6_3)"/>
</svg>
